<svg width="64" height="64" fill="none" xmlns="http://www.w3.org/2000/svg"><path d="M62.84 23.039 49.865 1.389A2.548 2.548 0 0 0 47.634.125c-.937 0-1.75.461-2.232 1.264L37.18 15.113H4.528A3.861 3.861 0 0 0 .67 18.97v34.394a3.861 3.861 0 0 0 3.857 3.857h12.455l-2.613 4.483a1.423 1.423 0 0 0-.008 1.44c.258.451.74.73 1.256.73h26.835c.516 0 .997-.279 1.256-.73.258-.449.255-.987-.008-1.44l-2.613-4.483h12.455a3.861 3.861 0 0 0 3.857-3.857V28.19h2.52a3.364 3.364 0 0 0 2.961-1.725 3.365 3.365 0 0 0-.042-3.427ZM41.484 61.875h-24.9l2.712-4.654h19.476l2.712 4.654Zm12.058-6.654H4.528a1.86 1.86 0 0 1-1.857-1.857v-.927H55.4v.927a1.86 1.86 0 0 1-1.857 1.857Zm1.857-4.784H2.67V18.97c0-1.024.834-1.857 1.858-1.857H35.98l-1.577 2.631a14.945 14.945 0 0 0-5.368-.992c-8.283 0-15.022 6.74-15.022 15.023s6.739 15.022 15.022 15.022c8.284 0 15.022-6.739 15.022-15.022 0-1.973-.382-3.857-1.076-5.584H55.4v22.246ZM42.058 33.775c0 7.18-5.842 13.022-13.023 13.022-7.18 0-13.022-5.842-13.022-13.022 0-7.181 5.841-13.023 13.022-13.023 7.18 0 13.023 5.842 13.023 13.023ZM61.14 25.48c-.26.458-.694.71-1.22.71H41.997a15.134 15.134 0 0 0-5.77-5.6l10.89-18.173a.568.568 0 0 1 .516-.292c.226 0 .4.098.516.292l12.974 21.65c.27.452.277.954.017 1.413ZM47.634 5.625c-1.328 0-2.74.952-2.74 2.715 0 .022 0 .044.002.066l.66 10.053c.016.983.66 1.755 1.57 1.966a2.39 2.39 0 0 0-1.88 2.332 2.39 2.39 0 0 0 2.388 2.388 2.39 2.39 0 0 0 2.388-2.387 2.39 2.39 0 0 0-1.88-2.333c.91-.21 1.554-.983 1.57-1.966l.66-10.053a.958.958 0 0 0 .002-.066c0-1.763-1.412-2.715-2.74-2.715Zm0 17.52a.388.388 0 1 1 .001-.776.388.388 0 0 1-.001.776Zm.08-4.788a.96.96 0 0 0-.002.065c0 .024-.002.04-.004.05a.218.218 0 0 1-.148 0 .249.249 0 0 1-.004-.05l-.002-.066-.66-10.044c.015-.62.52-.687.74-.687.22 0 .725.068.74.687l-.66 10.045Zm-11.906 8.491a3.065 3.065 0 0 0-1.565-1.787 3.065 3.065 0 0 0-2.372-.14c-1.64.571-3.843.571-5.483 0a3.066 3.066 0 0 0-2.372.14 3.065 3.065 0 0 0-1.565 1.787l-2.345 6.94c-.144-.05-.287-.1-.432-.153a2.284 2.284 0 0 0-1.76.08 2.284 2.284 0 0 0-1.188 1.3 2.286 2.286 0 0 0 .079 1.759 2.285 2.285 0 0 0 1.3 1.188c1.117.404 2.189.746 3.228 1.033-.02.135-.031.27-.031.407 0 1.906 1.918 3.399 4.366 3.399 1.37 0 2.572-.467 3.367-1.212.795.745 1.998 1.212 3.367 1.212 2.448 0 4.367-1.493 4.367-3.399a2.71 2.71 0 0 0-.032-.407c1.04-.287 2.112-.629 3.228-1.033a2.287 2.287 0 0 0 1.3-1.188c.26-.557.289-1.182.08-1.76a2.286 2.286 0 0 0-1.189-1.3 2.284 2.284 0 0 0-1.759-.079l-.264.093-2.325-6.88Zm-11.462.64a1.08 1.08 0 0 1 1.385-.677c2.064.718 4.733.718 6.797 0 .28-.097.576-.08.836.046.26.128.455.352.55.631l2.318 6.863c-2.602.777-4.93 1.146-7.196 1.146-2.216 0-4.492-.353-7.026-1.095l2.336-6.914Zm1.323 13.313c-1.34 0-2.288-.68-2.36-1.321a27.94 27.94 0 0 0 4.407.593c-.395.407-1.128.728-2.047.728Zm6.733 0c-.92 0-1.652-.32-2.047-.728a27.917 27.917 0 0 0 4.407-.593c-.072.64-1.02 1.321-2.36 1.321Zm6.907-5.275c.051.024.12.073.155.17a.296.296 0 0 1-.01.23.297.297 0 0 1-.17.156c-3.82 1.382-7.076 2.025-10.249 2.025-3.172 0-6.429-.643-10.248-2.025a.296.296 0 0 1-.17-.156.294.294 0 0 1-.01-.23.297.297 0 0 1 .27-.199c.04-.001.079.005.116.019 3.737 1.352 6.928 1.981 10.043 1.981 3.114 0 6.305-.63 10.043-1.981a.294.294 0 0 1 .23.01Z" fill="#fff"/></svg>