<svg version="1.1" id="Layer_1" xmlns="http://www.w3.org/2000/svg" x="0" y="0" viewBox="0 0 56 66" style="enable-background:new 0 0 56 66" xml:space="preserve"><style>.st0{fill:#fff}</style><path class="st0" d="M42.6 52.1c-.9 0-1.6-.7-1.6-1.6 0-.9.7-1.6 1.6-1.6.9 0 1.6.7 1.6 1.6 0 .7.6 1.3 1.3 1.3.7 0 1.3-.6 1.3-1.3 0-1.7-1.1-3.3-2.7-3.9v-1.1c0-.7-.6-1.3-1.3-1.3s-1.3.6-1.3 1.3v.9c-2.3.6-3.6 2.9-3 5.1.5 1.9 2.1 3.2 4.1 3.2.9 0 1.6.7 1.6 1.6 0 .9-.7 1.6-1.6 1.6-.9 0-1.6-.7-1.6-1.6 0-.7-.6-1.3-1.3-1.3-.7 0-1.3.6-1.3 1.3 0 1.9 1.3 3.6 3.2 4.1v.6c0 .7.6 1.3 1.3 1.3.7 0 1.3-.6 1.3-1.3v-.7c2.2-.9 3.2-3.3 2.4-5.5-.7-1.6-2.2-2.7-4-2.7zM18.2 35.5h-5c-.7 0-1.3.6-1.3 1.3v20.3c0 .7.6 1.3 1.3 1.3h5c.7 0 1.3-.6 1.3-1.3V36.8c0-.7-.6-1.3-1.3-1.3zM16.9 56h-2.5V38.1h2.5V56zm11.5-23.5h-5c-.7 0-1.3.6-1.3 1.3v23.4c0 .7.6 1.3 1.3 1.3h5c.7 0 1.3-.6 1.3-1.3V33.8c0-.7-.6-1.3-1.3-1.3zM27.1 56h-2.5V35.1h2.5V56zM7.9 46.7h-5c-.7 0-1.3.6-1.3 1.3v9.2c0 .7.6 1.3 1.3 1.3h5c.7 0 1.3-.6 1.3-1.3V48c0-.8-.6-1.3-1.3-1.3zM6.6 56H4.2v-6.7h2.5V56zM49.7 2h-8.9c-.7 0-1.3.6-1.3 1.3 0 .7.6 1.3 1.3 1.3h5.7l-14 14-4.9-4.9c-.2-.2-.6-.3-.9-.3-.3 0-.7.1-.9.3L.9 38.6c-.5.5-.5 1.3 0 1.8.2.2.6.4.9.4.3 0 .7-.1.9-.4l24-24 4.9 4.9c.2.3.6.4.9.4.3 0 .7-.2.9-.4l14.9-15v5.8c0 .7.6 1.3 1.3 1.3.7 0 1.3-.6 1.3-1.3V3.2c.1-.6-.5-1.2-1.2-1.2z"/><path class="st0" d="M49.6 42.6v-22c0-.7-.6-1.2-1.2-1.2h-4.8c-.7 0-1.3.5-1.3 1.2v19.9c-.8 0-1.6.1-2.4.3V27c0-.7-.6-1.2-1.3-1.2h-4.8c-.7 0-1.3.5-1.3 1.2v18.6c-1.5 2.1-2.3 4.6-2.3 7.1 0 6.8 5.5 12.3 12.3 12.3 6.8 0 12.3-5.5 12.3-12.3.1-4-1.9-7.8-5.2-10.1zm-4.9-20.7h2.4v19.4c-.8-.3-1.6-.5-2.4-.6V21.9zm-9.6 6.4h2.4v13.2c-.8.4-1.6.9-2.4 1.4V28.3zm16 29.4c-1.8 3-5 4.8-8.5 4.8-5.4 0-9.8-4.4-9.8-9.8 0-4 2.4-7.6 6.1-9.1.1 0 .3-.1.4-.2 1.1-.4 2.2-.6 3.4-.6h.8c1.5.1 2.9.6 4.2 1.3 4.6 2.9 6.2 9 3.4 13.6z"/></svg>