<svg width="59" height="60" fill="none" xmlns="http://www.w3.org/2000/svg"><path d="m52.84 39.202-3.846-.92v-1.35a7.21 7.21 0 0 0 3.553-6.209v-5.099c0-3.974-3.233-7.207-7.207-7.207h-.797a7.19 7.19 0 0 0-5.352 2.386c-1.278-4.137-5.139-7.153-9.69-7.153-4.553 0-8.414 3.015-9.692 7.153a7.19 7.19 0 0 0-5.352-2.386h-.797c-3.974 0-7.207 3.233-7.207 7.207v5.1a7.21 7.21 0 0 0 3.553 6.208v1.35l-3.846.92A8 8 0 0 0 0 47.007v3.469c0 .636.516 1.152 1.152 1.152h9.307c-.059.46-.088.922-.088 1.386v3.685H3.457a1.152 1.152 0 0 0 0 2.304h52.086a1.152 1.152 0 0 0 0-2.304h-6.914v-3.68c0-.47-.03-.935-.09-1.39h9.309c.636 0 1.152-.517 1.152-1.153v-3.469a7.999 7.999 0 0 0-6.16-7.805Zm-13.2-13.578a4.908 4.908 0 0 1 4.903-4.902h.797c2.703 0 4.902 2.2 4.902 4.902v.296a8.701 8.701 0 0 1-4.67-1.423 1.152 1.152 0 0 0-1.261 0 8.7 8.7 0 0 1-4.67 1.423v-.296Zm0 4.16v-1.56a10.994 10.994 0 0 0 5.301-1.415 10.993 10.993 0 0 0 5.301 1.416v2.498c0 2.704-2.199 4.903-4.902 4.903h-.797a4.908 4.908 0 0 1-4.902-4.903v-.94Zm2.21 13.263a10.88 10.88 0 0 0-1.454-.46l-3.662-.874c.273-.113.554-.204.84-.273l3.64-.872.637 2.48Zm-.953-6.11v1.337l-3.86.925a8.01 8.01 0 0 0-2.346.976v-1.684a10.216 10.216 0 0 0 3.754-3.934 7.259 7.259 0 0 0 2.452 2.38Zm-3.56-7.154c0 4.321-3.516 7.836-7.837 7.836-4.32 0-7.836-3.515-7.836-7.836v-3.375h1.267c3.235 0 6.317-1.033 8.851-2.907l.264.394a5.648 5.648 0 0 0 4.703 2.513h.587v3.375Zm-15.673-5.992c0-4.32 3.515-7.836 7.836-7.836 4.32 0 7.836 3.516 7.836 7.836v.312h-.587a3.348 3.348 0 0 1-2.787-1.489l-.427-.637c.348-.352.679-.722.99-1.107a1.152 1.152 0 1 0-1.792-1.448 12.548 12.548 0 0 1-9.802 4.68h-1.267v-.31Zm-1.109 10.766a10.216 10.216 0 0 0 3.764 3.94v1.685a8.005 8.005 0 0 0-2.357-.983l-3.859-.925v-1.338a7.262 7.262 0 0 0 2.452-2.379Zm1.699 7.15-3.657.877c-.492.119-.976.271-1.446.457l.634-2.473 3.64.873c.284.067.561.157.829.267ZM8.758 25.625a4.908 4.908 0 0 1 4.902-4.902h.797c2.703 0 4.903 2.2 4.903 4.902v.296a8.701 8.701 0 0 1-4.67-1.423 1.152 1.152 0 0 0-1.262 0 8.698 8.698 0 0 1-4.67 1.423v-.296Zm0 5.1v-2.5a10.994 10.994 0 0 0 5.3-1.415 10.993 10.993 0 0 0 5.301 1.416v2.498c0 2.704-2.199 4.903-4.902 4.903h-.797a4.908 4.908 0 0 1-4.902-4.903Zm2.263 18.6H2.305v-2.317a5.701 5.701 0 0 1 4.39-5.563l3.63-.867 1.713 6.681c-.412.65-.753 1.343-1.017 2.066Zm1.29-11.522c.445.085.896.128 1.35.128h.796c.459 0 .907-.044 1.341-.127v1.235l-1.444 5.627c-.168.135-.333.276-.493.42l-1.55-6.038v-1.245Zm.365 18.897v-3.685a8.393 8.393 0 0 1 3.519-6.853L26.733 56.7H12.676Zm5.672-11.644c.258-.089.52-.166.786-.23l5.503-1.319 2.705 10.543-8.994-8.994Zm8.276-3.079v-2.468c.934.277 1.902.417 2.876.416a10.11 10.11 0 0 0 2.887-.419v2.484l-2.88 11.225-2.883-11.238Zm7.75 1.543 5.486 1.31c.274.066.544.145.81.238l-9.003 9.002 2.707-10.55Zm11.95 13.18H32.297l10.522-10.523a8.391 8.391 0 0 1 3.505 6.843v3.68Zm.365-17.652-1.55 6.043c-.16-.144-.324-.284-.492-.418l-1.445-5.634v-1.234c.442.084.891.126 1.341.127h.797c.461 0 .912-.046 1.35-.129v1.245Zm10.006 10.277h-8.718a10.668 10.668 0 0 0-1.016-2.062l1.715-6.685 3.628.866a5.701 5.701 0 0 1 4.391 5.564v2.317ZM29.5 0c-.636 0-1.152.516-1.152 1.152v4.934a1.152 1.152 0 1 0 2.304 0V1.152C30.652.516 30.136 0 29.5 0Zm.815 9.279a1.16 1.16 0 0 0-.815-.338c-.304 0-.6.123-.815.338a1.16 1.16 0 0 0-.337.814c0 .303.123.6.337.815.215.215.512.338.815.338.303 0 .6-.123.815-.338.215-.217.336-.51.337-.815 0-.304-.123-.6-.337-.814Zm-8.478.261-4.27-4.269a1.152 1.152 0 0 0-1.63 1.63l4.27 4.27a1.149 1.149 0 0 0 1.63-.001c.45-.45.45-1.18 0-1.63Zm21.398-4.448c-.45-.45-1.18-.45-1.63 0l-4.53 4.53a1.152 1.152 0 0 0 1.63 1.63l4.53-4.53c.45-.45.45-1.18 0-1.63Z" fill="#fff"/></svg>