<svg width="64" height="64" fill="none" xmlns="http://www.w3.org/2000/svg"><path d="M60.2 30.778h-1.956v-.603a2.226 2.226 0 0 0-2.225-2.221H54.66a2.226 2.226 0 0 0-2.225 2.221v.603h-5.088v-.603a2.225 2.225 0 0 0-1.977-2.207V1a1 1 0 0 0-1-1H1.002a1 1 0 0 0-.999 1v62a1 1 0 0 0 1 1H60.2c2.094 0 3.798-1.596 3.798-3.558v-26.11c0-1.96-1.704-3.554-3.798-3.554Zm-5.765-.603c0-.12.104-.223.226-.223h1.358c.122 0 .226.102.226.223v3.944a.228.228 0 0 1-.226.223H54.66a.228.228 0 0 1-.226-.223v-3.944Zm-1.999 2.601v1.343c0 1.225.998 2.222 2.225 2.222h1.357a2.226 2.226 0 0 0 2.226-2.222v-1.343H60.2c.992 0 1.8.698 1.8 1.556v3.66H27.444v-3.66c0-.858.808-1.556 1.8-1.556h1.4v1.343c0 1.225.998 2.222 2.225 2.222h1.357a2.226 2.226 0 0 0 2.225-2.222v-1.343h5.088v1.343c0 1.225.999 2.222 2.226 2.222h1.357a2.226 2.226 0 0 0 2.225-2.222v-1.343h5.088ZM32.643 34.12v-3.944c0-.12.104-.223.227-.223h1.357c.123 0 .227.102.227.223v3.944a.228.228 0 0 1-.227.223H32.87a.228.228 0 0 1-.227-.223Zm12.48-4.167c.123 0 .226.102.226.223v3.944a.228.228 0 0 1-.226.223h-1.357a.228.228 0 0 1-.227-.223v-3.944c0-.12.104-.223.227-.223h1.357ZM2 2h41.371v25.992a2.225 2.225 0 0 0-1.831 2.184v.603h-5.089v-.603a2.226 2.226 0 0 0-2.225-2.221H32.87a2.226 2.226 0 0 0-2.225 2.221v.603h-1.4c-2.094 0-3.798 1.594-3.798 3.554v26.11c0 .56.139 1.088.385 1.56H2V1.998ZM60.2 62.001H29.245c-.975 0-1.8-.714-1.8-1.559V39.99H62v20.452c0 .86-.808 1.56-1.8 1.56ZM37.739 43.055h-5.131a1 1 0 0 0-1 1v5.127a1 1 0 0 0 1 .999h5.13a1 1 0 0 0 1-1v-5.127a1 1 0 0 0-1-.999Zm-1 5.127h-3.132v-3.128h3.132v3.128Zm10.46-5.127h-5.127a1 1 0 0 0-1 1v5.127a.998.998 0 0 0 1 .999h5.127a1 1 0 0 0 1-1v-5.127a1 1 0 0 0-1-.999Zm-1 5.127h-3.128v-3.128H46.2v3.128Zm-8.46 3.629h-5.131a1 1 0 0 0-1 .999v5.127a1 1 0 0 0 1 1h5.13a1 1 0 0 0 1-1V52.81a1 1 0 0 0-1-1Zm-1 5.127h-3.132v-3.129h3.132v3.129ZM47.2 51.81h-5.127a1 1 0 0 0-1 .999v5.127a.998.998 0 0 0 1 1h5.127a1 1 0 0 0 1-1V52.81a1 1 0 0 0-1-1Zm-1 5.127h-3.128v-3.129H46.2v3.129Zm10.642-13.883H51.71a1 1 0 0 0-1 1v5.127a.998.998 0 0 0 1 .999h5.13a1 1 0 0 0 1-1v-5.127a1 1 0 0 0-1-.999Zm-1 5.127H52.71v-3.128h3.132v3.128Zm1 3.629H51.71a1 1 0 0 0-1 .999v5.127a.998.998 0 0 0 1 1h5.13a1 1 0 0 0 1-1V52.81a1 1 0 0 0-1-1Zm-1 5.127H52.71v-3.129h3.132v3.129ZM6.136 17.873V7.133a1 1 0 0 1 .999-1h11.612a1 1 0 0 1 0 2H8.134v8.74h9.613v-3.04L15.89 15.52a.997.997 0 0 1-1.378-.033l-2.278-2.275a1 1 0 0 1 1.412-1.414L15.25 13.4l4.823-4.378a1 1 0 0 1 1.343 1.48l-1.67 1.517v5.854a1 1 0 0 1-1 1H7.136a1 1 0 0 1-1-1Zm0 19.495V26.632a1 1 0 0 1 .999-1h11.612a1 1 0 0 1 0 2H8.134v8.737h9.613v-3.038l-1.858 1.687a.996.996 0 0 1-1.378-.033l-2.279-2.278a.999.999 0 1 1 1.413-1.413l1.606 1.605 4.822-4.378a1 1 0 0 1 1.343 1.48l-1.67 1.516v5.851a1 1 0 0 1-1 1H7.136a1 1 0 0 1-1-1Zm15.349 10.72a.997.997 0 0 1-.069 1.412l-1.67 1.515v5.852a1 1 0 0 1-1 1H7.136a1 1 0 0 1-1-1V46.131a1 1 0 0 1 1-1h11.612a1 1 0 0 1 0 1.999H8.134v8.738h9.613v-3.04l-1.859 1.686a.996.996 0 0 1-1.377-.033l-2.278-2.275a1 1 0 0 1 1.412-1.414l1.605 1.602 4.824-4.374a1 1 0 0 1 1.41.069Zm3.962-40.955a1 1 0 0 1 .999-1h12.993a1 1 0 0 1 0 2H26.446a1 1 0 0 1-1-1Zm0 5.368a1 1 0 0 1 .999-.999h12.993a1 1 0 0 1 0 1.998H26.446a1 1 0 0 1-1-.999Z" fill="#fff"/></svg>