<svg version="1.1" id="Layer_1" xmlns="http://www.w3.org/2000/svg" x="0" y="0" viewBox="0 0 720 140" style="enable-background:new 0 0 720 140" xml:space="preserve"><style>.st0{fill:#fff}.st1{fill:#81808c}</style><path class="st0" d="M253.5 64.2h-5l7.6-22.1h6l7.6 22.1h-5l-5.5-17h-.2l-5.5 17zm-.3-8.7H265v3.6h-11.8v-3.6zM290.9 42.1v22.1h-4l-9.6-13.9h-.2v13.9h-4.7V42.1h4.1L286 56h.2V42.1h4.7zM298.5 64.2h-5l7.6-22.1h6l7.6 22.1h-5l-5.5-17h-.2l-5.5 17zm-.3-8.7H310v3.6h-11.8v-3.6zM317.4 64.2V42.1h4.7v18.2h9.5v3.8h-14.2zM330.5 42.1h5.2l5 9.5h.2l5-9.5h5.2l-8 14.3v7.8h-4.6v-7.8l-8-14.3zM353.5 64.2v-2.8l11-15.5h-11v-3.8h16.9v2.8l-11 15.5h11v3.8h-16.9zM374 64.2V42.1h14.9V46h-10.2v5.3h9.4v3.8h-9.4v5.3h10.2v3.8H374zM399.6 42.1h5.8l6.1 14.8h.3l6.1-14.8h5.8v22.1H419V49.8h-.2l-5.7 14.3H410l-5.7-14.3h-.2v14.4h-4.5V42.1zM432 42.1v22.1h-4.7V42.1h4.7zM454.3 42.1v22.1h-4l-9.6-13.9h-.2v13.9h-4.7V42.1h4.1l9.5 13.9h.2V42.1h4.7zM466 64.2h-7.8V42.1h7.9c2.2 0 4.1.4 5.7 1.3s2.8 2.1 3.7 3.8c.9 1.6 1.3 3.6 1.3 5.9 0 2.3-.4 4.3-1.3 5.9-.9 1.7-2.1 2.9-3.7 3.8-1.6 1-3.5 1.4-5.8 1.4zm-3.1-4h3c1.4 0 2.5-.2 3.5-.7.9-.5 1.7-1.3 2.1-2.3s.7-2.4.7-4-.2-3-.7-4-1.2-1.8-2.1-2.3c-.9-.5-2.1-.7-3.5-.7h-3v14zM492.2 48.5c-.1-.9-.5-1.5-1.1-2-.7-.5-1.5-.7-2.7-.7-.8 0-1.4.1-1.9.3s-.9.5-1.2.9c-.3.4-.4.8-.4 1.3 0 .4.1.7.3 1 .2.3.4.5.8.8.3.2.7.4 1.1.5.4.2.9.3 1.4.4l2 .5c1 .2 1.8.5 2.7.9.8.4 1.5.8 2.1 1.3s1 1.1 1.4 1.9c.3.7.5 1.5.5 2.4 0 1.4-.4 2.5-1 3.5-.7 1-1.7 1.8-2.9 2.3-1.3.5-2.8.8-4.6.8-1.8 0-3.3-.3-4.6-.8-1.3-.5-2.3-1.4-3.1-2.4-.7-1.1-1.1-2.4-1.2-4h4.5c0 .7.3 1.4.6 1.8.4.5.9.9 1.5 1.1.6.2 1.4.4 2.2.4.8 0 1.5-.1 2.1-.3.6-.2 1-.5 1.4-1 .3-.4.5-.9.5-1.4 0-.5-.1-.9-.4-1.3-.3-.3-.7-.6-1.3-.9s-1.2-.5-2-.6l-2.4-.6c-1.9-.5-3.3-1.2-4.4-2.1-1.1-1-1.6-2.3-1.6-3.9 0-1.3.3-2.5 1.1-3.5.7-1 1.7-1.8 3-2.3 1.3-.6 2.7-.8 4.3-.8 1.6 0 3.1.3 4.3.8 1.2.6 2.2 1.3 2.9 2.3.7 1 1 2.2 1.1 3.5h-5zM203.5 113V96.4h5.9c1.3 0 2.4.2 3.2.7.8.5 1.5 1.1 1.9 1.9.4.8.6 1.7.6 2.7 0 1-.2 1.9-.6 2.8-.4.8-1.1 1.5-1.9 1.9-.9.5-1.9.7-3.2.7h-4.1V105h3.8c.8 0 1.5-.1 2-.4.5-.3.9-.7 1.1-1.2.2-.5.4-1.1.4-1.7s-.1-1.2-.4-1.7c-.2-.5-.6-.9-1.1-1.1-.5-.3-1.2-.4-2-.4H206V113h-2.5zM232.5 104.7c0 1.8-.3 3.3-1 4.6-.6 1.3-1.5 2.3-2.7 2.9-1.1.7-2.4 1-3.8 1s-2.7-.3-3.8-1c-1.1-.7-2-1.7-2.7-2.9-.6-1.3-1-2.8-1-4.6 0-1.8.3-3.3 1-4.6.6-1.3 1.5-2.3 2.7-2.9 1.1-.7 2.4-1 3.8-1s2.7.3 3.8 1c1.1.7 2 1.7 2.7 2.9.7 1.3 1 2.9 1 4.6zm-2.4 0c0-1.4-.2-2.5-.7-3.4-.4-.9-1-1.6-1.8-2.1s-1.6-.7-2.6-.7-1.8.2-2.6.7c-.8.5-1.3 1.2-1.8 2.1-.4.9-.7 2.1-.7 3.4s.2 2.5.7 3.4 1 1.6 1.8 2.1 1.6.7 2.6.7 1.8-.2 2.6-.7c.8-.5 1.3-1.2 1.8-2.1.4-.9.7-2 .7-3.4zM238.7 113l-4.6-16.6h2.6l3.2 12.9h.2l3.4-12.9h2.6l3.4 12.9h.2l3.2-12.9h2.6l-4.6 16.6h-2.5l-3.5-12.4h-.1l-3.5 12.4h-2.6zM257.8 113V96.4h10.4v2.2h-7.9v5.1h7.4v2.1h-7.4v5.1h8v2.2h-10.5zM271.5 113V96.4h5.9c1.3 0 2.4.2 3.2.7s1.5 1.1 1.9 1.8c.4.8.6 1.7.6 2.7 0 1-.2 1.9-.6 2.7-.4.8-1.1 1.4-1.9 1.8-.9.4-1.9.6-3.2.6H273v-2.2h4.3c.8 0 1.5-.1 2-.3s.9-.6 1.1-1 .4-1 .4-1.6c0-.6-.1-1.2-.4-1.6s-.6-.8-1.1-1.1c-.5-.2-1.2-.4-2-.4h-3.1V113h-2.7zm8.3-7.5 4.1 7.5H281l-4-7.5h2.8zM286.3 113V96.4h10.4v2.2h-7.9v5.1h7.4v2.1h-7.4v5.1h8v2.2h-10.5zM305.4 113H300V96.4h5.5c1.6 0 3 .3 4.2 1 1.2.7 2.1 1.6 2.7 2.8.6 1.2.9 2.7.9 4.4 0 1.7-.3 3.2-.9 4.5-.6 1.2-1.5 2.2-2.7 2.9-1.1.7-2.6 1-4.3 1zm-2.8-2.2h2.7c1.3 0 2.3-.2 3.2-.7.8-.5 1.5-1.2 1.9-2.1.4-.9.6-2 .6-3.3 0-1.3-.2-2.4-.6-3.3-.4-.9-1-1.6-1.8-2.1s-1.8-.7-3-.7h-2.9v12.2zM322.6 113V96.4h6.1c1.2 0 2.2.2 2.9.6.8.4 1.4.9 1.7 1.6s.6 1.4.6 2.2c0 .7-.1 1.3-.4 1.7-.3.5-.6.9-1 1.1-.4.3-.9.5-1.4.6v.2c.6 0 1.1.2 1.6.5s1 .8 1.3 1.4c.3.6.5 1.3.5 2.2 0 .8-.2 1.6-.6 2.3-.4.7-1 1.2-1.8 1.6-.8.4-1.9.6-3.2.6h-6.3zm2.5-9.4h3.4c.6 0 1.1-.1 1.5-.3.5-.2.8-.5 1.1-.9.3-.4.4-.9.4-1.4 0-.7-.2-1.3-.7-1.7s-1.2-.7-2.2-.7h-3.4v5zm0 7.3h3.6c1.2 0 2.1-.2 2.6-.7.5-.5.8-1 .8-1.7 0-.5-.1-1-.4-1.4-.3-.4-.6-.8-1.1-1-.5-.3-1.1-.4-1.7-.4h-3.7v5.2zM336.2 96.4h2.8l4.3 7.6h.2l4.3-7.6h2.8l-6 10.1v6.5h-2.5v-6.5l-5.9-10.1zM359.2 96.4h3l5.3 12.9h.2l5.3-12.9h3V113h-2.4v-12h-.2l-4.9 12h-2l-4.9-12h-.2v12H359V96.4zM382.2 96.4V113h-2.5V96.4h2.5zM385.9 113V96.4h2.5v14.5h7.5v2.2h-10zM398.8 113V96.4h2.5v14.5h7.5v2.2h-10zM414.2 96.4V113h-2.5V96.4h2.5zM432.2 104.7c0 1.8-.3 3.3-1 4.6-.6 1.3-1.5 2.3-2.7 2.9-1.1.7-2.4 1-3.8 1s-2.7-.3-3.8-1c-1.1-.7-2-1.7-2.7-2.9-.6-1.3-1-2.8-1-4.6 0-1.8.3-3.3 1-4.6.6-1.3 1.5-2.3 2.7-2.9 1.1-.7 2.4-1 3.8-1s2.7.3 3.8 1c1.1.7 2 1.7 2.7 2.9.7 1.3 1 2.9 1 4.6zm-2.4 0c0-1.4-.2-2.5-.7-3.4-.4-.9-1-1.6-1.8-2.1s-1.6-.7-2.6-.7-1.8.2-2.6.7-1.3 1.2-1.8 2.1c-.4.9-.7 2.1-.7 3.4s.2 2.5.7 3.4 1 1.6 1.8 2.1 1.6.7 2.6.7 1.8-.2 2.6-.7 1.3-1.2 1.8-2.1.7-2 .7-3.4zM448.8 96.4V113h-2.3l-8.4-12.2h-.2V113h-2.5V96.4h2.3l8.5 12.2h.2V96.4h2.4zM455.7 113 451 96.4h2.6l3.2 12.9h.2l3.4-12.9h2.6l3.4 12.9h.2l3.2-12.9h2.6l-4.6 16.6h-2.5l-3.5-12.4h-.1l-3.5 12.4h-2.5zM474.7 113H472l6-16.6h2.9l6 16.6h-2.7l-4.7-13.6h-.1l-4.7 13.6zm.5-6.5h8.6v2.1h-8.6v-2.1zM486.3 96.4h2.8l4.3 7.6h.2l4.3-7.6h2.8l-6 10.1v6.5h-2.5v-6.5l-5.9-10.1zM512.3 100.8c-.1-.8-.4-1.4-1.1-1.8-.6-.4-1.4-.6-2.4-.6-.7 0-1.3.1-1.8.3-.5.2-.9.5-1.2.9-.3.4-.4.8-.4 1.3 0 .4.1.7.3 1 .2.3.4.5.7.7.3.2.6.4 1 .5.4.1.7.2 1 .3l1.6.4c.5.1 1.1.3 1.6.5s1.1.5 1.5.9c.5.4.9.8 1.2 1.3.3.5.4 1.2.4 1.9 0 .9-.2 1.8-.7 2.5-.5.7-1.2 1.3-2.1 1.7-.9.4-2 .6-3.3.6-1.2 0-2.3-.2-3.2-.6-.9-.4-1.6-1-2.1-1.7s-.8-1.6-.9-2.6h2.5c0 .6.2 1.1.6 1.5.3.4.8.7 1.3.9.5.2 1.1.3 1.8.3s1.3-.1 1.9-.3c.6-.2 1-.5 1.3-.9.3-.4.5-.9.5-1.4 0-.5-.1-.9-.4-1.2-.3-.3-.7-.6-1.1-.8-.5-.2-1-.4-1.6-.5l-2-.5c-1.3-.4-2.4-.9-3.2-1.6-.8-.7-1.2-1.6-1.2-2.8 0-1 .3-1.8.8-2.5s1.2-1.3 2.1-1.7c.9-.4 1.9-.6 3-.6s2.1.2 3 .6 1.5.9 2 1.6c.5.7.8 1.5.8 2.4h-2.2zM525.4 113h-2.7l6-16.6h2.9l6 16.6h-2.7l-4.7-13.6h-.1l-4.7 13.6zm.4-6.5h8.6v2.1h-8.6v-2.1zM542.5 96.4V113H540V96.4h2.5zM24.5 62.9h-1c-1.4 0-2.5-1.1-2.5-2.5v-9c0-1.4 1.1-2.5 2.5-2.5h1c1.4 0 2.5 1.1 2.5 2.5v9c0 1.4-1.1 2.5-2.5 2.5zM72.5 61.9h-1c-1.4 0-2.5-1.1-2.5-2.5v-7c0-1.4 1.1-2.5 2.5-2.5h1c1.4 0 2.5 1.1 2.5 2.5v7c0 1.4-1.1 2.5-2.5 2.5zM39.5 65.9h-1c-1.4 0-2.5-1.1-2.5-2.5v-15c0-1.4 1.1-2.5 2.5-2.5h1c1.4 0 2.5 1.1 2.5 2.5v15c0 1.4-1.1 2.5-2.5 2.5zM88.5 65.9h-1c-1.4 0-2.5-1.1-2.5-2.5v-15c0-1.4 1.1-2.5 2.5-2.5h1c1.4 0 2.5 1.1 2.5 2.5v15c0 1.4-1.1 2.5-2.5 2.5zM102.5 65.9h-1c-1.4 0-2.5-1.1-2.5-2.5v-15c0-1.4 1.1-2.5 2.5-2.5h1c1.4 0 2.5 1.1 2.5 2.5v15c0 1.4-1.1 2.5-2.5 2.5zM119.5 62.9h-1c-1.4 0-2.5-1.1-2.5-2.5v-9c0-1.4 1.1-2.5 2.5-2.5h1c1.4 0 2.5 1.1 2.5 2.5v9c0 1.4-1.1 2.5-2.5 2.5zM133.5 66.9h-1c-1.4 0-2.5-1.1-2.5-2.5v-17c0-1.4 1.1-2.5 2.5-2.5h1c1.4 0 2.5 1.1 2.5 2.5v17c0 1.4-1.1 2.5-2.5 2.5zM149.5 62.9h-1c-1.4 0-2.5-1.1-2.5-2.5v-9c0-1.4 1.1-2.5 2.5-2.5h1c1.4 0 2.5 1.1 2.5 2.5v9c0 1.4-1.1 2.5-2.5 2.5zM164.5 70.9h-1c-1.4 0-2.5-1.1-2.5-2.5v-25c0-1.4 1.1-2.5 2.5-2.5h1c1.4 0 2.5 1.1 2.5 2.5v25c0 1.4-1.1 2.5-2.5 2.5zM548.5 75.9h-1c-1.4 0-2.5-1.1-2.5-2.5v-35c0-1.4 1.1-2.5 2.5-2.5h1c1.4 0 2.5 1.1 2.5 2.5v35c0 1.4-1.1 2.5-2.5 2.5zM564.5 69.9h-1c-1.4 0-2.5-1.1-2.5-2.5v-23c0-1.4 1.1-2.5 2.5-2.5h1c1.4 0 2.5 1.1 2.5 2.5v23c0 1.4-1.1 2.5-2.5 2.5zM580.5 79.9h-1c-1.4 0-2.5-1.1-2.5-2.5v-43c0-1.4 1.1-2.5 2.5-2.5h1c1.4 0 2.5 1.1 2.5 2.5v43c0 1.4-1.1 2.5-2.5 2.5zM595.5 63.9h-1c-1.4 0-2.5-1.1-2.5-2.5v-11c0-1.4 1.1-2.5 2.5-2.5h1c1.4 0 2.5 1.1 2.5 2.5v11c0 1.4-1.1 2.5-2.5 2.5zM613.5 65.9h-1c-1.4 0-2.5-1.1-2.5-2.5v-15c0-1.4 1.1-2.5 2.5-2.5h1c1.4 0 2.5 1.1 2.5 2.5v15c0 1.4-1.1 2.5-2.5 2.5zM626.5 70.9h-1c-1.4 0-2.5-1.1-2.5-2.5v-25c0-1.4 1.1-2.5 2.5-2.5h1c1.4 0 2.5 1.1 2.5 2.5v25c0 1.4-1.1 2.5-2.5 2.5zM640.5 90.9h-1c-1.4 0-2.5-1.1-2.5-2.5v-65c0-1.4 1.1-2.5 2.5-2.5h1c1.4 0 2.5 1.1 2.5 2.5v65c0 1.4-1.1 2.5-2.5 2.5z"/><path class="st1" d="M657.5 75.9h-1c-1.4 0-2.5-1.1-2.5-2.5v-35c0-1.4 1.1-2.5 2.5-2.5h1c1.4 0 2.5 1.1 2.5 2.5v35c0 1.4-1.1 2.5-2.5 2.5zM672.5 70.9h-1c-1.4 0-2.5-1.1-2.5-2.5v-25c0-1.4 1.1-2.5 2.5-2.5h1c1.4 0 2.5 1.1 2.5 2.5v25c0 1.4-1.1 2.5-2.5 2.5zM688.5 65.9h-1c-1.4 0-2.5-1.1-2.5-2.5v-15c0-1.4 1.1-2.5 2.5-2.5h1c1.4 0 2.5 1.1 2.5 2.5v15c0 1.4-1.1 2.5-2.5 2.5zM703.5 60.9h-1c-1.4 0-2.5-1.1-2.5-2.5v-5c0-1.4 1.1-2.5 2.5-2.5h1c1.4 0 2.5 1.1 2.5 2.5v5c0 1.4-1.1 2.5-2.5 2.5z"/><path class="st0" d="M180.5 68.9h-1c-1.4 0-2.5-1.1-2.5-2.5v-21c0-1.4 1.1-2.5 2.5-2.5h1c1.4 0 2.5 1.1 2.5 2.5v21c0 1.4-1.1 2.5-2.5 2.5zM195.5 66.9h-1c-1.4 0-2.5-1.1-2.5-2.5v-17c0-1.4 1.1-2.5 2.5-2.5h1c1.4 0 2.5 1.1 2.5 2.5v17c0 1.4-1.1 2.5-2.5 2.5zM55.5 70.9h-1c-1.4 0-2.5-1.1-2.5-2.5v-25c0-1.4 1.1-2.5 2.5-2.5h1c1.4 0 2.5 1.1 2.5 2.5v25c0 1.4-1.1 2.5-2.5 2.5z"/></svg>